<?xml version="1.0" encoding="utf-8"?>
<!-- Generator: Adobe Illustrator 16.0.0, SVG Export Plug-In . SVG Version: 6.00 Build 0)  -->
<!DOCTYPE svg PUBLIC "-//W3C//DTD SVG 1.1//EN" "http://www.w3.org/Graphics/SVG/1.1/DTD/svg11.dtd">
<svg version="1.1" id="Layer_1" xmlns="http://www.w3.org/2000/svg" xmlns:xlink="http://www.w3.org/1999/xlink" x="0px" y="0px"
	 width="50px" height="25px" viewBox="0 0 50 25" enable-background="new 0 0 50 25" xml:space="preserve">
<g>
	<g>
		<g>
			<path fill="#0D0F21" d="M34.65,11.274c0.122,0.087,0.287,0.134,0.504,0.134h1.551c0.598,0,1.174-0.039,1.732-0.116
				c0.555-0.078,1.053-0.255,1.49-0.529s0.789-0.666,1.059-1.176c0.268-0.509,0.402-1.205,0.402-2.086
				c0-0.745-0.135-1.362-0.402-1.853c-0.27-0.489-0.615-0.876-1.043-1.161c-0.43-0.284-0.9-0.484-1.418-0.603
				s-1.023-0.177-1.521-0.177h-1.432c-0.442,0-0.738,0.211-0.922,0.586V11.274z"/>
			<polygon fill="#0D0F21" points="13.249,15.053 13.254,15.047 13.246,15.05 			"/>
			<polygon fill="#0D0F21" points="11.735,15.495 11.733,15.495 11.738,15.495 			"/>
			<path fill="#0D0F21" d="M0,0v25h50V0H0z M21.586,24.16h-7.725v-1.169c1.372,0,2.058-0.352,2.058-1.055
				c0-0.575-0.075-1.023-0.224-1.35c-0.15-0.326-0.452-0.762-0.91-1.31l-3.055-3.781h0l-3.386-3.391v0.712v1.175v10.042H8.343H4.951
				V13.992v-3.824V4.985C4.724,3.957,3.803,3.439,2.177,3.439L2.173,2.472l2.777-0.041v0h3.393v7.737h0.001v1.936l0.575-0.593
				l-0.005-0.005l1.065-1.086l3.798-3.928c0.458-0.454,0.761-0.818,0.91-1.089c0.148-0.271,0.223-0.646,0.223-1.123
				c0-0.585-0.687-0.877-2.059-0.877V2.431h7.727v0.975C19.981,3.47,19.489,3.562,19.1,3.681c-0.387,0.119-0.751,0.293-1.088,0.521
				c-0.338,0.227-0.696,0.529-1.073,0.908s-0.865,0.882-1.461,1.51l-3.564,3.769l0.003,0.003l-1.41,1.438l2.748,3.218l3.231,4.081
				c0.596,0.755,1.084,1.358,1.461,1.814c0.377,0.455,0.735,0.82,1.074,1.094c0.338,0.273,0.7,0.481,1.089,0.625
				c0.388,0.142,0.88,0.253,1.477,0.33V24.16z M27.215,13.75c0.531,0.506,0.947,1.087,1.125,1.798
				c0.021,0.082,0.017,0.158,0.027,0.238l0.016-0.021c0.008-0.413,0.013-0.723,0.018-0.952c0.001-0.079,0.002-0.152,0.004-0.221
				c0.001-0.062,0.002-0.112,0.002-0.154c0.004-0.188,0.005-0.239,0,0c0,0.045-0.001,0.096-0.002,0.154
				c-0.002,0.064-0.003,0.132-0.004,0.221c-0.008,0.429-0.018,0.952-0.018,0.952c-0.001,0.034-0.006,0.063-0.007,0.097
				c0.053,0.473-0.031,0.918-0.217,1.342c-0.217,0.694-0.563,1.203-0.937,1.566c-0.021,0.025-0.038,0.055-0.061,0.077
				c-0.019,0.013-0.043,0.021-0.063,0.034c-0.712,0.631-1.454,0.782-1.454,0.782l0-0.001c-1.007,0.381-2.072,0.413-3.182,0.094
				c-0.988-0.284-1.863-0.772-2.499-1.555c-0.576-0.709-0.892-1.549-1.06-2.438c-0.206-1.089,0.157-2.038,0.798-2.896
				c0.3-0.401,0.701-0.734,1.075-1.079c0.13-0.12,0.18-0.2,0.053-0.341c-0.099-0.11-0.183-0.235-0.278-0.351
				c-0.577-0.703-0.712-1.516-0.608-2.375c0.025-0.216,0.124-0.434,0.234-0.627c0.683-1.176,2.096-1.818,3.41-1.513V4.612V4.219
				V1.978c0-0.816-0.431-1.226-1.292-1.225V0.25h3.719v0.503c-0.765,0-1.148,0.409-1.148,1.227v2.239h0.018v2.12
				c0,0.655,0.074,0.942,0.137,1.072c0.024,0.029,0.04,0.062,0.062,0.092c0.015,0.013,0.026,0.017,0.026,0.017l-0.015,0.002
				c0.275,0.387,0.403,0.855,0.291,1.34c-0.181,0.789-0.812,1.458-1.816,1.11c-0.328-0.114-0.554-0.314-0.646-0.643
				c-0.029-0.108-0.032-0.229-0.087-0.323c-0.076-0.134-0.164-0.306-0.292-0.357c-0.179-0.071-0.388-0.026-0.533,0.146
				c-0.324,0.387-0.319,0.82-0.141,1.241c0.294,0.688,0.905,1.004,1.624,1.146c0.475,0.094,0.957,0.15,1.435,0.23
				c0.062,0.01,0.162,0.055,0.164,0.089c0.005,0.065-0.028,0.157-0.081,0.197c-0.089,0.068-0.199,0.117-0.308,0.156
				c-0.497,0.179-1.011,0.322-1.491,0.533c-0.479,0.211-0.958,0.447-1.384,0.741c-0.924,0.637-1.097,1.781-0.755,2.716
				c0.354,0.97,1.046,1.722,2.091,2.022c1.027,0.296,2.016,0.164,2.795-0.654c0.499-0.524,0.454-1.146,0.249-1.701
				c-0.135-0.365-0.501-0.497-0.902-0.498c-0.445-0.002-0.769,0.196-0.983,0.567c-0.05,0.086-0.104,0.172-0.154,0.257
				c-0.033,0.004-0.064,0.007-0.098,0.01c-0.067-0.185-0.161-0.365-0.197-0.555c-0.217-1.126,0.25-1.983,1.158-2.664
				c0.58-0.436,1.202-0.833,1.711-1.334c0.549-0.539,0.99-1.179,1.479-1.776c0.053-0.063,0.102-0.133,0.15-0.2
				c0.027,0.008,0.057,0.015,0.084,0.021c-0.029,0.258-0.043,0.52-0.09,0.775c-0.197,1.027-0.658,1.948-1.244,2.819
				C26.82,13.388,26.832,13.385,27.215,13.75z M47.248,21.756c-0.109,0.401-0.277,0.777-0.506,1.13
				c-0.23,0.353-0.508,0.659-0.836,0.917c-0.328,0.26-0.701,0.389-1.119,0.389c-1.213,0-2.107-0.241-2.684-0.724
				s-1.004-1.264-1.281-2.347c-0.24-0.895-0.479-1.854-0.717-2.876c-0.238-1.024-0.521-1.965-0.85-2.824
				c-0.324-0.849-0.723-1.557-1.194-2.131c-0.005-0.005-0.01-0.012-0.015-0.017c-0.477-0.479-1.074-0.72-1.789-0.72h-0.895
				c-0.325,0-0.556,0.044-0.713,0.124v11.457h-3.395l0.025-18.679c-0.062-1.297-0.996-1.952-2.822-1.952V2.495h2.848l0,0
				l3.158,0.035c0.277-0.008,0.559-0.015,0.824-0.027c0.428-0.02,0.885-0.034,1.373-0.044c0.486-0.009,1.078-0.016,1.775-0.016
				c0.854,0,1.66,0.123,2.416,0.368s1.406,0.583,1.953,1.015c0.547,0.431,0.979,0.939,1.297,1.527s0.479,1.227,0.479,1.911
				c0,0.686-0.131,1.293-0.389,1.822c-0.258,0.527-0.621,0.989-1.088,1.381c-0.469,0.392-1.02,0.725-1.656,0.999
				c-0.594,0.256-1.253,0.455-1.967,0.608c0.885,0.526,1.629,1.167,2.219,1.933c0.627,0.812,1.049,1.595,1.268,2.347
				c0.119,0.472,0.26,1.036,0.418,1.694c0.158,0.66,0.344,1.283,0.553,1.871s0.451,1.089,0.73,1.5
				c0.277,0.413,0.615,0.618,1.014,0.618c0.477,0,0.824-0.529,1.045-1.588l0.686,0.282C47.414,21.015,47.359,21.355,47.248,21.756z"
				/>
		</g>
	</g>
</g>
</svg>
