<?xml version="1.0" encoding="utf-8"?>
<!-- Generator: Adobe Illustrator 16.0.0, SVG Export Plug-In . SVG Version: 6.00 Build 0)  -->
<!DOCTYPE svg PUBLIC "-//W3C//DTD SVG 1.1//EN" "http://www.w3.org/Graphics/SVG/1.1/DTD/svg11.dtd">
<svg version="1.1" id="Layer_1" xmlns="http://www.w3.org/2000/svg" xmlns:xlink="http://www.w3.org/1999/xlink" x="0px" y="0px"
	 width="209.02px" height="137.02px" viewBox="0 0 209.02 137.02" enable-background="new 0 0 209.02 137.02" xml:space="preserve">
<g id="Layer_4">
</g>
<g id="Layer_2">
	<g id="Layer_1_1_">
		<g>
			<rect x="102.7" y="23.593" fill="#FFFFFF" width="5.737" height="20.979"/>
			<path fill="#FFFFFF" d="M111.799,110.286c0,0,11.852-2.972,12.113-21.884c0.268-18.917,0,0,0,0L111.799,110.286"/>
			<path fill="#FFFFFF" d="M109.436,42.126c0,0-0.998-0.225-0.998-6.633l-2.507,7.279L109.436,42.126"/>
			<path fill="#FFFFFF" d="M102.7,11.012v14.79h5.66V11.025c0-4.588,1.692-6.887,5.076-6.887V1.316H96.985v2.822
				C100.795,4.133,102.7,6.43,102.7,11.012z"/>
			<path fill="#FFFFFF" d="M117.281,106.547c0.462-0.234,0.863-0.521,1.229-0.844c0.523-0.658,0.921-1.623,1.267-2.253
				c0.362-0.664,0.734-1.333,1.158-1.94c-0.062-0.039-0.12-0.076-0.187-0.114c0.277-0.543,0.483-0.943,0.691-1.354
				c1.979-3.963,3.214-8.135,2.275-12.854c-0.786-3.991-2.622-7.252-4.977-10.093c-1.693-2.05-1.741-2.033-0.395-4.57
				c2.594-4.891,4.633-10.06,5.5-15.826c0.212-1.437,0.27-2.905,0.397-4.354c-0.121-0.038-0.246-0.076-0.367-0.12
				c-0.22,0.378-0.433,0.767-0.67,1.124c-2.155,3.354-4.108,6.944-6.541,9.971c-2.254,2.812-5.002,5.043-7.568,7.488
				c-4.018,3.819-6.083,8.634-5.124,14.952c0.16,1.064,0.575,2.078,0.873,3.114c0.147-0.017,0.285-0.033,0.433-0.055
				c0.225-0.478,0.463-0.959,0.683-1.442c0.951-2.083,2.381-3.194,4.352-3.185c1.771,0.006,3.396,0.745,3.99,2.796
				c0.908,3.113,1.107,6.604-1.101,9.549c-3.448,4.594-7.82,5.334-12.365,3.673c-4.623-1.688-7.682-5.909-9.25-11.353
				c-1.512-5.246-0.748-11.67,3.339-15.244c1.885-1.65,4-2.978,6.122-4.161c2.125-1.184,4.398-1.99,6.598-2.993
				c0.479-0.219,0.968-0.493,1.36-0.877c0.233-0.224,0.379-0.74,0.358-1.106c-0.008-0.192-0.449-0.444-0.727-0.499
				c-2.112-0.45-4.247-0.769-6.346-1.294c-3.18-0.794-5.884-2.571-7.185-6.431c-0.791-2.361-0.812-4.796,0.622-6.967
				c0.644-0.97,1.567-1.222,2.357-0.822c0.566,0.291,0.955,1.255,1.292,2.007c0.242,0.526,0.255,1.206,0.385,1.814
				c0.406,1.842,1.404,2.966,2.855,3.607c4.441,1.951,7.236-1.804,8.036-6.233c0.712-3.919-0.674-7.712-3.231-10.102
				c-6.757-6.326-15.94-2.664-19.812,5.793c-0.487,1.086-0.924,2.308-1.037,3.52c-0.458,4.823,0.138,9.385,2.691,13.332
				c0.424,0.646,0.796,1.348,1.231,1.967c0.562,0.79,0.341,1.239-0.233,1.914c-1.654,1.936-3.431,3.804-4.756,6.058
				c-2.834,4.812-4.441,10.141-3.529,16.253c0.743,4.993,2.139,9.708,4.688,13.688c2.813,4.393,6.683,7.132,11.056,8.729
				c6.48,2.367,12.61,1.31,18.274-3.169c0.25-0.191,0.488-0.353,0.73-0.482C116.827,106.904,117.004,106.685,117.281,106.547z"/>
		</g>
		<g>
			<path fill="#FFFFFF" d="M169.154,74.923c1.426-0.707,2.834-1.452,4.394-1.634c0.597-0.064,1.393,0.022,2.117-0.07
				c0.06-0.707,0.604-1.452,1.218-1.547c0.026,0,0.054,0,0.079-0.005c-1.431-1.188-2.965-2.27-4.615-3.256v-0.51
				c3.432-0.877,6.551-2.083,9.371-3.623c2.812-1.541,5.249-3.41,7.323-5.608c2.064-2.197,3.671-4.791,4.816-7.75
				c1.141-2.972,1.715-6.381,1.715-10.229c0-3.843-0.704-7.429-2.112-10.729c-1.412-3.3-3.318-6.155-5.742-8.572
				c-2.419-2.424-5.296-4.32-8.636-5.696c-3.348-1.375-6.912-2.066-10.692-2.066c-3.08,0-5.697,0.038-7.854,0.088
				c-2.156,0.055-4.178,0.138-6.07,0.247s-3.85,0.197-5.876,0.247c-0.462,0.011-0.954,0.021-1.468,0.033
				c0.081,4.188-0.351,8.365-1.141,12.466c-0.156,0.8-0.704,1.062-1.24,0.948c-0.058,0.214-0.104,0.427-0.169,0.635
				c-0.319,1.142-1.521,1.245-2.096,0.435c-0.28,0.536-0.722,0.953-1.387,1.173c-0.645,0.208-1.331,0.164-1.991-0.038
				c-0.044,0.416-0.077,0.828-0.108,1.25c-0.081,1.113-1.071,1.522-1.749,1.178v32.44c0.354,0.109,0.666,0.399,0.772,0.916
				c0.523,2.56,1.378,5.06,2.795,7.104c2.575,0.592,5.231,0.795,7.765,1.562c0.709,0.219,1.447,0.481,2.13,0.864v-2.98
				c0.346-1.206,1.715-1.814,4.087-1.814h3.958c3.166,0,5.806,1.35,7.918,4.04c0.622,0.789,1.202,1.64,1.764,2.538
				C168.234,76.244,168.415,75.296,169.154,74.923z M160.729,63.949h-6.86c-1.762,0-2.816-0.823-3.162-2.473V29.962
				c0-6.155,1.668-9.235,5.012-9.235h6.334c2.197,0,4.437,0.328,6.73,0.991c2.285,0.664,4.371,1.788,6.268,3.383
				c1.894,1.601,3.428,3.771,4.619,6.518c1.186,2.752,1.78,6.217,1.78,10.399c0,4.943-0.596,8.853-1.78,11.708
				c-1.191,2.861-2.753,5.06-4.688,6.6c-1.937,1.541-4.136,2.533-6.594,2.971C165.922,63.731,163.368,63.949,160.729,63.949z"/>
			<path fill="#FFFFFF" d="M150.006,50.492c-0.12-8.081-0.259-16.155-0.375-24.24C149.506,34.342,149.722,42.416,150.006,50.492z"/>
			<path fill="#FFFFFF" d="M149.774,112.303c-1.023-8.364-1.279-16.822-1.317-25.274c-0.039-8.93-0.156-17.838-0.476-26.762
				c-0.55-15.151-1.267-30.386-0.308-45.516c-0.021,0.006-0.043,0.012-0.063,0.012c-1.678,0.208-3.366,0.317-5.057,0.279
				c-1.19-0.021-2.476,0.077-3.685-0.126c-0.187,0.191-0.441,0.312-0.752,0.312c-0.544,0-0.895-0.357-1.05-0.828
				c-0.101-0.144-0.169-0.312-0.222-0.482h-12.598v5.657c8.355,0,12.533,3.893,12.533,11.688v84.21
				c0.182-0.101,0.372-0.183,0.584-0.255c1.646-0.606,3.456-0.508,5.145-0.282c1.854,0.245,3.896,0.443,5.678,1.172
				c0.733,0.302,1.407,0.687,2.057,1.135v-1.545C150.063,114.573,149.907,113.438,149.774,112.303z"/>
			<polygon fill="#FFFFFF" points="151.635,135.38 136.618,135.38 136.748,13.917 151.635,14.126 			"/>
			<path fill="#FFFFFF" d="M205.069,114.703c-0.974,5.942-2.512,8.914-4.623,8.914c-1.759,0-3.254-1.151-4.485-3.47
				c-1.229-2.31-2.307-5.12-3.23-8.42c-0.92-3.302-1.741-6.799-2.445-10.504c-0.7-3.694-1.317-6.862-1.844-9.511
				c-0.97-4.222-2.835-8.617-5.608-13.173c-2.77-4.556-6.269-8.349-10.489-11.391v-0.021c-3.11-0.055-6.217-0.126-9.322-0.235
				c-2.617-0.094-5.268-0.423-7.89-0.27c-3.555,0.214-7.115,0.517-10.671,0.28c-1.49-0.1-4.242-0.071-6.104-1.316
				c0.53,2.451,1.312,4.796,2.454,6.792c2.574,0.702,5.23,0.942,7.764,1.875c0.709,0.257,1.447,0.575,2.13,1.036v-3.574
				c0.346-1.453,1.715-2.182,4.087-2.182h3.958c3.166,0,5.806,1.622,7.918,4.856c2.112,3.238,3.894,7.263,5.345,12.082
				c1.451,4.822,2.709,10.102,3.764,15.853c1.054,5.739,2.107,11.122,3.166,16.144c1.228,6.079,3.119,10.466,5.669,13.173
				c2.548,2.708,6.51,4.062,11.876,4.062c1.85,0,3.499-0.725,4.95-2.183c1.45-1.446,2.679-3.169,3.692-5.146
				c1.012-1.979,1.755-4.089,2.243-6.343c0.488-2.247,0.729-4.16,0.729-5.745L205.069,114.703z"/>
		</g>
		<g>
			<g>
				<path fill="#FFFFFF" d="M55.2,13.557v5.46c6.07,0,9.106,1.639,9.106,4.922c0,2.681-0.328,4.779-0.984,6.304
					c-0.661,1.519-2,3.562-4.027,6.112L35.98,66.948c0.146-0.088,0.327-0.137,0.53-0.137c0.351,0,0.613,0.147,0.809,0.378
					c0.29-0.339,0.738-0.422,1.137-0.346c0.872-0.248,1.792-0.307,2.596-0.258c0.73,0.044,1.456,0.139,2.178,0.258
					c1.331-1.431,2.562-2.928,4.04-4.002c-0.213-0.351-0.289-0.812-0.208-1.267c0.12-0.642,0.51-1.157,0.881-1.617
					c0.064-0.082,0.134-0.164,0.194-0.252c-0.083-0.581,0.134-1.212,0.566-1.523c0.564-0.406,1.296-0.154,1.633,0.521
					c0.052,0.104,0.095,0.208,0.129,0.307l16.356-21.941c2.636-3.525,4.796-6.349,6.463-8.477c1.668-2.126,3.253-3.825,4.748-5.097
					c1.491-1.277,3.102-2.253,4.812-2.922c1.72-0.669,3.896-1.186,6.536-1.546v-5.472H55.2V13.557z"/>
				<path fill="#FFFFFF" d="M35.163,70.1c0.026-0.121,0.061-0.23,0.096-0.346V13.557h-15.01v121.266h15.013V71.86
					C35.069,71.339,35.012,70.758,35.163,70.1z"/>
				<path fill="#FFFFFF" d="M35.163,70.1c0.026-0.121,0.061-0.23,0.096-0.346V13.557h-15.01v121.266h15.013V71.86
					C35.069,71.339,35.012,70.758,35.163,70.1z"/>
				<polygon fill="#FFFFFF" points="35.258,134.822 20.249,134.822 20.249,13.923 35.258,13.557 				"/>
				<polygon fill="#FFFFFF" points="40.897,60.474 35.258,67.858 50.24,86.895 56.985,84.374 				"/>
				<rect x="53.74" y="84.664" fill="#FFFFFF" width="1.227" height="1.968"/>
				<rect x="54.695" y="84.297" fill="#FFFFFF" width="2.189" height="2.297"/>
				<rect x="56.778" y="84.341" fill="#FFFFFF" width="0.155" height="0.279"/>
				<rect x="56.85" y="84.341" fill="#FFFFFF" width="0.035" height="0.229"/>
				<path fill="#FFFFFF" d="M57.01,84.467c0,0.051-0.035,0.1-0.077,0.1h-0.004c-0.04,0-0.083-0.049-0.083-0.1l0,0
					c0-0.05,0.039-0.093,0.083-0.093h0.004C56.981,84.374,57.01,84.417,57.01,84.467L57.01,84.467z"/>
				<path fill="#FFFFFF" d="M54.695,86.145c0,0.543-0.358,0.979-0.799,0.979h-0.575c-0.441,0-0.795-0.438-0.795-0.979l0,0
					c0-0.531,0.354-0.967,0.795-0.967h0.569C54.336,85.179,54.695,85.614,54.695,86.145L54.695,86.145z"/>
				<g>
					<path fill="#FFFFFF" d="M53.74,86.325c0,0.63-0.428,1.146-0.942,1.146h-1.24c-0.519,0-0.934-0.51-0.934-1.146l0,0
						c0-0.631,0.415-1.146,0.934-1.146h1.24C53.317,85.179,53.74,85.695,53.74,86.325L53.74,86.325z"/>
					<g>
						<path fill="#FFFFFF" d="M53.39,86.359c-0.064,0.859-0.596,0.815-1.114,0.815c-0.558,0-1.106,0.071-1.292-0.757
							c-0.229-1.014,0.743-0.938,1.227-0.938c0.591,0,1.114,0.061,1.188,0.96c0.025,0.36,0.722,0.164,0.688-0.227
							c-0.095-1.319-1.098-1.326-1.932-1.326c-0.864,0-1.788,0.209-1.883,1.476c-0.101,1.294,1.074,1.403,1.814,1.403
							c0.885,0,1.905-0.12,2.004-1.479C54.12,85.865,53.411,85.991,53.39,86.359z"/>
					</g>
				</g>
				<g>
					<path fill="#FFFFFF" d="M51.645,86.298c0.155,0.241,0.394,0.303,0.565,0.511c0.039-0.077,0.086-0.144,0.121-0.227
						c-0.221,0.148-0.756-0.12-1.015-0.153c-0.325-0.043-0.666,0.051-0.959,0.23c-0.057,0.033-0.194,0.126-0.121,0.225
						c0.199,0.252,0.661-0.055,0.89-0.157c0.319-0.153,0.645-0.309,0.963-0.461c0.039-0.018,0.308-0.165,0.203-0.265
						c-0.112-0.104-0.341-0.016-0.453,0.033c-0.203,0.1-0.406,0.198-0.612,0.296c-0.156,0.077-0.315,0.148-0.472,0.22
						c-0.142,0.071-0.371,0.1-0.013,0.044c0.064,0.012,0.121,0.021,0.182,0.044c-0.013-0.021-0.025-0.032-0.035-0.05
						c-0.039,0.077-0.082,0.148-0.12,0.221c0.202-0.115,0.769,0.143,1.015,0.17c0.333,0.038,0.669-0.057,0.959-0.241
						c0.052-0.033,0.194-0.132,0.121-0.22c-0.177-0.208-0.411-0.265-0.566-0.511C52.185,85.826,51.525,86.107,51.645,86.298z"/>
				</g>
				<path fill="#FFFFFF" d="M87.312,127.115c-1.72-0.807-3.322-1.974-4.816-3.508c-1.5-1.535-3.085-3.586-4.752-6.142
					c-1.667-2.56-3.828-5.947-6.463-10.185L56.985,84.374c-0.347,0.938-1.353,0.91-1.961,1.343c-0.955,0.663-1.967,0.846-3.033,1.01
					c-0.535,0.082-1.162,0.252-1.75,0.164l13.518,21.229c2.026,3.076,3.361,5.521,4.026,7.353c0.657,1.83,0.99,4.346,0.99,7.575
					c0,3.945-3.033,5.919-9.104,5.919v6.562h34.172v-6.562C91.204,128.534,89.028,127.909,87.312,127.115z"/>
				<polygon fill="#FFFFFF" points="42.256,69.64 37.781,64.497 46.589,53.101 51.066,58.238 				"/>
			</g>
			<rect x="20.249" y="56.988" fill="#FFFFFF" width="15.013" height="21.466"/>
		</g>
		<path fill="#FFFFFF" d="M33.504,111.952c-1.023-8.371-1.273-16.823-1.312-25.276c-0.044-8.93-0.16-17.837-0.48-26.761
			c-0.544-15.146-1.261-30.39-0.306-45.515c-0.021,0-0.043,0.005-0.065,0.011c-1.676,0.203-3.366,0.307-5.05,0.274
			c-1.197-0.028-2.476,0.071-3.688-0.138c-0.187,0.197-0.438,0.323-0.753,0.323c-0.544,0-0.894-0.361-1.054-0.833
			c-0.099-0.137-0.271-0.531-0.336-0.481L7.965,13.786l0.018,5.433c8.358,0,12.532,3.897,12.532,11.692v84.209
			c0.178-0.093,0.372-0.169,0.583-0.252c1.651-0.603,3.457-0.51,5.146-0.285c1.853,0.241,3.901,0.449,5.676,1.173
			c0.73,0.303,1.409,0.691,2.058,1.142v-1.546C33.797,114.21,33.647,113.086,33.504,111.952z"/>
	</g>
	<g id="Layer_3">
	</g>
</g>
</svg>
